<?xml version="1.0" encoding="UTF-8" standalone="no"?>
<svg
   xmlns:dc="http://purl.org/dc/elements/1.1/"
   xmlns:cc="http://creativecommons.org/ns#"
   xmlns:rdf="http://www.w3.org/1999/02/22-rdf-syntax-ns#"
   xmlns:svg="http://www.w3.org/2000/svg"
   xmlns="http://www.w3.org/2000/svg"
   xmlns:sodipodi="http://sodipodi.sourceforge.net/DTD/sodipodi-0.dtd"
   xmlns:inkscape="http://www.inkscape.org/namespaces/inkscape"
   width="1em"
   height="1em"
   viewBox="0 0 36 36"
   version="1.1"
   id="svg6"
   sodipodi:docname="sparkles1.svg"
   inkscape:version="1.0.2-2 (e86c870879, 2021-01-15)">
  <metadata
     id="metadata12">
    <rdf:RDF>
      <cc:Work
         rdf:about="">
        <dc:format>image/svg+xml</dc:format>
        <dc:type
           rdf:resource="http://purl.org/dc/dcmitype/StillImage" />
        <dc:title></dc:title>
      </cc:Work>
    </rdf:RDF>
  </metadata>
  <defs
     id="defs10" />
  <sodipodi:namedview
     pagecolor="#ffffff"
     bordercolor="#666666"
     borderopacity="1"
     objecttolerance="10"
     gridtolerance="10"
     guidetolerance="10"
     inkscape:pageopacity="0"
     inkscape:pageshadow="2"
     inkscape:window-width="1920"
     inkscape:window-height="1017"
     id="namedview8"
     showgrid="false"
     inkscape:zoom="23.611111"
     inkscape:cx="18"
     inkscape:cy="18"
     inkscape:window-x="-8"
     inkscape:window-y="-8"
     inkscape:window-maximized="1"
     inkscape:current-layer="svg6" />
  <path
     fill="#FFAC33"
     d="M 34.347,16.893 25.448,13.599 22.125,2.708 a 1,1 0 0 0 -1.912,0 l -3.322,10.891 -8.9,3.294 a 1,1 0 0 0 0,1.876 l 8.895,3.293 3.324,11.223 a 1,1 0 0 0 1.918,-10e-4 l 3.324,-11.223 8.896,-3.293 a 0.998,0.998 0 0 0 -10e-4,-1.875 z"
     id="path2"
     style="display:inline;fill:#9cbbb8;fill-opacity:1" />
  <path
     fill="#FFCC4D"
     d="m14.347 27.894l-2.314-.856l-.9-3.3a.998.998 0 0 0-1.929-.001l-.9 3.3l-2.313.856a1 1 0 0 0 0 1.876l2.301.853l.907 3.622a1 1 0 0 0 1.94-.001l.907-3.622l2.301-.853a.997.997 0 0 0 0-1.874zM10.009 6.231l-2.364-.875l-.876-2.365a.999.999 0 0 0-1.876 0l-.875 2.365l-2.365.875a1 1 0 0 0 0 1.876l2.365.875l.875 2.365a1 1 0 0 0 1.876 0l.875-2.365l2.365-.875a1 1 0 0 0 0-1.876z"
     id="path4"
     style="fill:#9fccd3;fill-opacity:1" />
</svg>
