<?xml version="1.0" encoding="UTF-8" standalone="no"?>
<svg
   xmlns:dc="http://purl.org/dc/elements/1.1/"
   xmlns:cc="http://creativecommons.org/ns#"
   xmlns:rdf="http://www.w3.org/1999/02/22-rdf-syntax-ns#"
   xmlns:svg="http://www.w3.org/2000/svg"
   xmlns="http://www.w3.org/2000/svg"
   xmlns:sodipodi="http://sodipodi.sourceforge.net/DTD/sodipodi-0.dtd"
   xmlns:inkscape="http://www.inkscape.org/namespaces/inkscape"
   width="1em"
   height="1em"
   viewBox="0 0 36 36"
   version="1.1"
   id="svg6"
   sodipodi:docname="sparkles2.svg"
   inkscape:version="1.0.2-2 (e86c870879, 2021-01-15)">
  <metadata
     id="metadata12">
    <rdf:RDF>
      <cc:Work
         rdf:about="">
        <dc:format>image/svg+xml</dc:format>
        <dc:type
           rdf:resource="http://purl.org/dc/dcmitype/StillImage" />
        <dc:title></dc:title>
      </cc:Work>
    </rdf:RDF>
  </metadata>
  <defs
     id="defs10" />
  <sodipodi:namedview
     pagecolor="#ffffff"
     bordercolor="#666666"
     borderopacity="1"
     objecttolerance="10"
     gridtolerance="10"
     guidetolerance="10"
     inkscape:pageopacity="0"
     inkscape:pageshadow="2"
     inkscape:window-width="1920"
     inkscape:window-height="1017"
     id="namedview8"
     showgrid="false"
     inkscape:zoom="23.611111"
     inkscape:cx="18"
     inkscape:cy="18"
     inkscape:window-x="-8"
     inkscape:window-y="-8"
     inkscape:window-maximized="1"
     inkscape:current-layer="svg6" />
  <path
     fill="#FFAC33"
     d="M 34.347,16.893 25.448,13.599 22.125,2.708 a 1,1 0 0 0 -1.912,0 l -3.322,10.891 -8.9,3.294 a 1,1 0 0 0 0,1.876 l 8.895,3.293 3.324,11.223 a 1,1 0 0 0 1.918,-10e-4 l 3.324,-11.223 8.896,-3.293 a 0.998,0.998 0 0 0 -10e-4,-1.875 z"
     id="path2"
     style="display:inline;fill:#9cbbb8;fill-opacity:1" />
  <path
     fill="#FFCC4D"
     d="m 14.347,27.894 -2.314,-0.856 -0.9,-3.3 A 0.998,0.998 0 0 0 9.204,23.737 l -0.9,3.3 -2.313,0.856 a 1,1 0 0 0 0,1.876 l 2.301,0.853 0.907,3.622 a 1,1 0 0 0 1.94,-10e-4 l 0.907,-3.622 2.301,-0.853 a 0.997,0.997 0 0 0 0,-1.874 z M 10.009,6.231 7.645,5.356 6.769,2.991 a 0.999,0.999 0 0 0 -1.876,0 L 4.018,5.356 1.653,6.231 a 1,1 0 0 0 0,1.876 l 2.365,0.875 0.875,2.365 a 1,1 0 0 0 1.876,0 L 7.644,8.982 10.009,8.107 a 1,1 0 0 0 0,-1.876 z"
     id="path4"
     style="display:none;fill:#9fccd3;fill-opacity:1" />
</svg>
