<?xml version="1.0" encoding="UTF-8" standalone="no"?>
<svg
   xmlns:dc="http://purl.org/dc/elements/1.1/"
   xmlns:cc="http://creativecommons.org/ns#"
   xmlns:rdf="http://www.w3.org/1999/02/22-rdf-syntax-ns#"
   xmlns:svg="http://www.w3.org/2000/svg"
   xmlns="http://www.w3.org/2000/svg"
   xmlns:xlink="http://www.w3.org/1999/xlink"
   xmlns:sodipodi="http://sodipodi.sourceforge.net/DTD/sodipodi-0.dtd"
   xmlns:inkscape="http://www.inkscape.org/namespaces/inkscape"
   width="400mm"
   height="400mm"
   viewBox="0 0 400 400"
   version="1.1"
   id="svg8"
   inkscape:version="1.0.2-2 (e86c870879, 2021-01-15)"
   sodipodi:docname="logo.svg">
  <defs
     id="defs2">
    <linearGradient
       inkscape:collect="always"
       id="faggot">
      <stop
         style="stop-color:#822891;stop-opacity:1"
         offset="0"
         id="stop1496" />
      <stop
         style="stop-color:#4c00e7;stop-opacity:1"
         offset="1"
         id="stop1498" />
    </linearGradient>
    <linearGradient
       inkscape:collect="always"
       xlink:href="#faggot"
       id="linearGradient1506"
       x1="0"
       y1="200"
       x2="400.75595"
       y2="151.61905"
       gradientUnits="userSpaceOnUse" />
    <linearGradient
       inkscape:collect="always"
       xlink:href="#faggot"
       id="linearGradient1568"
       gradientUnits="userSpaceOnUse"
       x1="14.363095"
       y1="281.64285"
       x2="512.6369"
       y2="168.25" />
    <mask
       maskUnits="userSpaceOnUse"
       id="mask845">
      <g
         id="g853"
         style="stroke-width:35;stroke-miterlimit:4;stroke-dasharray:none">
        <path
           sodipodi:type="star"
           style="display:inline;fill:#9cbbb8;fill-opacity:0;stroke:#ffffff;stroke-width:35;stroke-miterlimit:4;stroke-dasharray:none;stroke-opacity:1"
           id="path847"
           sodipodi:sides="14"
           sodipodi:cx="187.4762"
           sodipodi:cy="189.74405"
           sodipodi:r1="176.29256"
           sodipodi:r2="171.87254"
           sodipodi:arg1="1.0649473"
           sodipodi:arg2="1.2893468"
           inkscape:flatsided="true"
           inkscape:rounded="0.5"
           inkscape:randomized="0.05"
           inkscape:transform-center-x="1.9072507"
           inkscape:transform-center-y="3.8631549"
           transform="translate(14.363095,15.875)"
           d="m 270.69827,336.39151 c -34.76295,17.50562 -32.44906,19.5246 -72.2076,23.33504 -39.75853,3.81043 -44.06269,6.16776 -79.97306,-8.91246 C 82.607236,335.73386 82.173984,345.14367 58.423774,314.13574 34.673565,283.12782 25.48514,281.61202 16.709411,242.40579 7.9336813,203.19957 5.2010627,194.28914 9.2264036,155.0779 13.251745,115.86666 13.96298,120.36512 37.714395,89.91187 61.46581,59.458619 72.913569,61.21261 106.95633,40.539584 140.99909,19.866557 139.58561,10.19826 179.47237,7.8363591 c 39.88677,-2.3619006 46.66244,-1.9031784 83.2637,13.4680929 36.60126,15.371271 25.60694,14.742817 52.13908,43.264149 26.53215,28.521333 33.41605,40.558949 46.36034,76.694809 12.94429,36.13586 3.35703,43.98682 -5.90523,82.39128 -9.26226,38.40446 -7.4318,42.73603 -29.42023,76.18123 -21.98843,33.44521 -20.44882,19.04997 -55.21176,36.55559 z" />
        <path
           style="fill:none;stroke:#ffffff;stroke-width:30;stroke-linecap:round;stroke-linejoin:round;stroke-miterlimit:4;stroke-dasharray:none;stroke-opacity:1"
           d="m 164.63803,280.63301 c 5.23644,-13.18623 8.18767,-28.06168 9.08716,-42.22859 0.37258,-5.86812 0,-11.75986 0,-17.63979 0,-20.28327 0.005,-34.90803 -5.87993,-54.52299 -1.52227,-5.07424 -3.43014,-10.02775 -5.34539,-14.96709 -3.06395,-7.90176 -8.55262,-16.76612 -8.55262,-25.65787 33.0847,-4.6935 66.40078,-10.69078 99.9588,-10.69078"
           id="path849" />
        <path
           style="fill:none;stroke:#ffffff;stroke-width:30;stroke-linecap:round;stroke-linejoin:round;stroke-miterlimit:4;stroke-dasharray:none;stroke-opacity:1"
           d="m 173.72519,182.81235 c 19.43655,-4.02135 24.39604,-5.44376 48.10851,-7.48354 5.68078,-0.48867 11.4046,0.11178 17.10526,0 27.7391,-0.54391 5.85135,-0.53454 10.69078,-0.53454"
           id="path851" />
      </g>
    </mask>
  </defs>
  <sodipodi:namedview
     id="base"
     pagecolor="#ffffff"
     bordercolor="#666666"
     borderopacity="1.0"
     inkscape:pageopacity="0.0"
     inkscape:pageshadow="2"
     inkscape:zoom="0.49497475"
     inkscape:cx="571.77998"
     inkscape:cy="715.06205"
     inkscape:document-units="mm"
     inkscape:current-layer="layer1"
     inkscape:document-rotation="0"
     showgrid="false"
     inkscape:window-width="1920"
     inkscape:window-height="1017"
     inkscape:window-x="-8"
     inkscape:window-y="-8"
     inkscape:window-maximized="1" />
  <metadata
     id="metadata5">
    <rdf:RDF>
      <cc:Work
         rdf:about="">
        <dc:format>image/svg+xml</dc:format>
        <dc:type
           rdf:resource="http://purl.org/dc/dcmitype/StillImage" />
        <dc:title />
      </cc:Work>
    </rdf:RDF>
  </metadata>
  <g
     inkscape:label="Layer 1"
     inkscape:groupmode="layer"
     id="layer1">
    <rect
       style="opacity:1;fill:url(#linearGradient1568);fill-opacity:1;fill-rule:nonzero;stroke:#000000;stroke-width:0;stroke-miterlimit:4;stroke-dasharray:none;stroke-opacity:0"
       id="rect1486"
       width="400"
       height="400"
       x="5e-07"
       y="5e-07"
       mask="url(#mask845)"
       transform="translate(-1.6036172)" />
  </g>
</svg>
